<svg viewBox="0 0 32 32" xmlns="http://www.w3.org/2000/svg" style="display:block;height:24px;width:24px;fill:currentColor" aria-hidden="true" role="presentation" focusable="false">
    <path d="m23 3c2.106801 0 4.1361668.82306574 5.6571068 2.34289322 1.5202187 1.52021874 2.3428932 3.54936205 2.3428932 5.65710678 0 6.1258166-4.1336896 10.7413484-13.2771622 17.0360378l-.4613525.3161485-1.2603024.8557461-.561306-.379523c-10.08413946-6.8183189-14.4398769-11.4368525-14.4398769-17.8284094 0-2.1072166.82336538-4.13657894 2.34389322-5.65710678 1.51945266-1.51945266 3.54974264-2.34289322 5.65610678-2.34289322 2.0014609 0 3.9330366.74281683 5.4253543 2.12030845l.2319249.22275721 1.3417208 1.34293434 1.3448932-1.34310678c1.3675074-1.36750739 3.148793-2.17124499 5.0269145-2.31831743l.3138626-.01841591zm0 2c-1.4881441 0-2.9222843.54615204-4.0367433 1.5612911l-.2051499.19581568-2.7582792 2.75827923-2.7566756-2.75802055c-1.1419182-1.14108286-2.6614358-1.75736546-4.243152-1.75736546-1.58115306 0-3.10134088.61655445-4.24189322 1.75710678-1.14169457 1.14169457-1.75810678 2.660976-1.75810678 4.24289322 0 5.1012962 3.53044809 9.1738639 11.7845794 14.9510839l.8707748.6038363.3446458.2350798.5857119-.3992616.8733618-.6071874c7.706855-5.4127073 11.2817846-9.4483722 11.5273066-14.2471091l.0102199-.2673951.0033998-.2690468c0-1.5826219-.6158555-3.1016419-1.756848-4.24263454-1.1419182-1.14108286-2.6614358-1.75736546-4.243152-1.75736546z"></path>
</svg>